<svg height='100px' width='100px'  fill="#0073E6" xmlns="http://www.w3.org/2000/svg" xmlns:xlink="http://www.w3.org/1999/xlink" version="1.1" x="0px" y="0px" viewBox="0 0 100 100" enable-background="new 0 0 100 100" xml:space="preserve"><g><path d="M67.19,23.793c1.333,0,2.419-1.085,2.419-2.419c0-1.333-1.086-2.418-2.419-2.418c-1.333,0-2.419,1.084-2.419,2.418   C64.771,22.708,65.857,23.793,67.19,23.793z"></path><circle cx="17.072" cy="50.17" r="2.418"></circle><path d="M32.27,23.62c1.155,0.667,2.638,0.27,3.304-0.886c0.666-1.154,0.269-2.636-0.886-3.303   c-1.155-0.667-2.636-0.27-3.303,0.886C30.718,21.472,31.115,22.955,32.27,23.62z"></path><circle cx="33.628" cy="79.367" r="2.418"></circle><circle cx="67.113" cy="79.399" r="2.418"></circle><path d="M82.82,48.451c-1.168,0.643-1.596,2.116-0.955,3.285c0.642,1.168,2.116,1.598,3.285,0.956   c1.168-0.643,1.597-2.115,0.955-3.284C85.462,48.238,83.99,47.81,82.82,48.451z"></path><path d="M50.167,5.76c-24.586,0-44.516,19.93-44.516,44.516s19.93,44.516,44.516,44.516s44.516-19.93,44.516-44.516   S74.753,5.76,50.167,5.76z M67.19,15.387c3.302,0,5.987,2.686,5.987,5.987c0,1.617-0.645,3.085-1.69,4.163l8.425,14.629   c0.492,0.854,0.198,1.945-0.656,2.437c-0.281,0.162-0.587,0.239-0.889,0.239c-0.617,0-1.217-0.321-1.547-0.895l-8.465-14.7   c-0.377,0.074-0.766,0.115-1.165,0.115c-3.301,0-5.987-2.686-5.987-5.987C61.204,18.073,63.889,15.387,67.19,15.387z    M68.399,50.374c0,10.012-8.145,18.158-18.156,18.158c-0.92,0-1.665-0.746-1.665-1.666s0.745-1.666,1.665-1.666   c8.175,0,14.826-6.651,14.826-14.826c0-0.919,0.746-1.665,1.666-1.665C67.653,48.709,68.399,49.455,68.399,50.374z M60.733,48.709   c0.92,0,1.666,0.746,1.666,1.665c0,6.703-5.453,12.156-12.156,12.156c-0.919,0-1.666-0.745-1.666-1.665   c0-0.919,0.746-1.665,1.666-1.665c4.866,0,8.825-3.959,8.825-8.826C59.067,49.455,59.813,48.709,60.733,48.709z M44.381,50.374   c0-3.231,2.63-5.861,5.861-5.861c3.232,0,5.861,2.63,5.861,5.861c0,3.232-2.629,5.862-5.861,5.862   C47.011,56.236,44.381,53.606,44.381,50.374z M28.293,18.533c1.651-2.859,5.32-3.842,8.179-2.192c1.4,0.808,2.349,2.1,2.76,3.544   l16.882,0.017c0.985,0.001,1.784,0.801,1.783,1.786c0,0.324-0.087,0.628-0.238,0.889c-0.308,0.535-0.886,0.895-1.548,0.894   l-16.963-0.018c-0.125,0.364-0.284,0.721-0.483,1.067c-1.65,2.858-5.319,3.841-8.177,2.191   C27.627,25.062,26.644,21.393,28.293,18.533z M51.909,33.882c0,0.92-0.746,1.666-1.666,1.666c-8.175,0-14.826,6.651-14.826,14.826   c0,0.92-0.745,1.666-1.666,1.666c-0.919,0-1.666-0.746-1.666-1.666c0-10.011,8.146-18.157,18.157-18.157   C51.163,32.217,51.909,32.963,51.909,33.882z M11.825,53.052c-1.59-2.893-0.529-6.541,2.364-8.13   c1.417-0.778,3.015-0.919,4.462-0.522l8.767-14.427c0.511-0.843,1.609-1.11,2.451-0.599c0.277,0.167,0.492,0.4,0.637,0.665   c0.297,0.541,0.305,1.222-0.039,1.787l-8.809,14.497c0.248,0.294,0.47,0.616,0.662,0.965c1.589,2.894,0.529,6.54-2.365,8.13   C17.06,57.007,13.414,55.946,11.825,53.052z M33.628,85.354c-3.301,0-5.987-2.687-5.987-5.988c0-1.616,0.646-3.084,1.69-4.162   l-8.425-14.63c-0.492-0.854-0.198-1.945,0.656-2.437c0.28-0.161,0.587-0.237,0.889-0.237c0.617,0,1.217,0.32,1.547,0.893   l8.466,14.701c0.377-0.075,0.766-0.116,1.164-0.116c3.302,0,5.988,2.686,5.988,5.987S36.93,85.354,33.628,85.354z M39.752,52.04   c-0.92,0-1.666-0.746-1.666-1.666c0-6.703,5.453-12.155,12.156-12.155c0.92,0,1.666,0.745,1.666,1.666   c0,0.919-0.745,1.665-1.666,1.665c-4.866,0-8.826,3.959-8.826,8.825C41.417,51.294,40.671,52.04,39.752,52.04z M70.106,84.584   c-2.86,1.65-6.53,0.667-8.179-2.192c-0.2-0.346-0.359-0.702-0.483-1.066l-16.962,0.017c-0.663,0-1.24-0.359-1.549-0.893   c-0.15-0.262-0.237-0.566-0.237-0.89c-0.001-0.985,0.797-1.785,1.782-1.786l16.882-0.017c0.411-1.443,1.36-2.735,2.76-3.543   c2.859-1.65,6.529-0.667,8.178,2.192C73.948,79.265,72.965,82.934,70.106,84.584z M86.867,55.819   c-1.417,0.778-3.013,0.92-4.461,0.523L73.64,70.769c-0.511,0.842-1.609,1.11-2.451,0.599c-0.276-0.168-0.492-0.4-0.637-0.664   c-0.297-0.541-0.305-1.222,0.039-1.788l8.808-14.497c-0.247-0.294-0.469-0.616-0.66-0.965c-1.59-2.894-0.529-6.541,2.364-8.129   c2.893-1.59,6.541-0.53,8.13,2.364C90.822,50.583,89.761,54.229,86.867,55.819z"></path><circle cx="50.243" cy="50.374" r="2.531"></circle></g></svg>